<svg id="Layer_1" data-name="Layer 1" xmlns="http://www.w3.org/2000/svg" viewBox="0 0 214.47 243.36"><defs><style>.cls-1{fill:#fff;}.cls-2{fill:#fff200;}</style></defs><rect class="cls-1" width="214.47" height="243.36"/><path class="cls-2" d="M314.94,514.78l6.66,4.5c-20.74,28.11-35.63,48.46-42.25,58.22-1.92,2.82-7.62,11.36-11.32,10.14a3,3,0,0,1-1.52-1.25Z" transform="translate(-178.96 -361.17)"/><path class="cls-2" d="M303.08,502.93l8.12-1.08,9,74.5a12.72,12.72,0,0,1-4.29-4.24,20.38,20.38,0,0,1-1.63-4.12,40.85,40.85,0,0,1-1.54-6.16C312.05,558,308.22,534.79,303.08,502.93Z" transform="translate(-178.96 -361.17)"/><path class="cls-2" d="M329,503.11l6.27.82c-.75,8.91-1.56,16.46-2.24,22.21-.44,3.74-.88,7.18-.88,7.18-.27,2.17-.48,3.75-.78,5.83s-.78,5.3-1.54,9.29c-.26,1.35-.6,3.09-1.08,5.25-.25,1.13-.42,1.84-.58,2.48-.88,3.74-1,5.07-1.59,7.54-1.16,5.19-1.59,8-3.68,10.27a10.73,10.73,0,0,1-3.16,2.38Q324.32,539.73,329,503.11Z" transform="translate(-178.96 -361.17)"/><path class="cls-2" d="M319.83,515.69l5.88-5.12,39.65,45.63a2.37,2.37,0,0,1-.9,1.2c-2,1.32-6.49-1.15-11.27-5.9Z" transform="translate(-178.96 -361.17)"/><path d="M365.11,556c-.23-.25-.9-1-1.73-1.85-8.27-9-48.36-53.82-53.6-59.4a2.79,2.79,0,0,0-1.6-.87c-3.61-.48-7,8.07-9.91,13-8,13.4-23.93,18-27.29,18.9-17.35,4.54-32.37-3.92-34.58-5.21-17.73-10.34-27.91-32.5-24.07-54,4.12-23.07,23-38.53,42.22-42.66a55.27,55.27,0,0,1,44.73,10.32c12.79,10,18.91,25.55,19.61,27.37h0q12.27,26.17,25.42,52.92Q354.68,535.53,365.11,556Z" transform="translate(-178.96 -361.17)"/><path class="cls-2" d="M296.17,432.65a56.25,56.25,0,0,1,13.59,14.43,57.42,57.42,0,0,1,5.48,10.68c7.4,18.6,19.61,53.48,20.23,55.25-4.82-4.6-8.59-8.42-11.17-11.09a104.49,104.49,0,0,0-7.63-7.27c-4.71-4-7.11-6-9.48-5.8-3.66.38-5.36,5.21-7.75,9.23-6.72,11.29-19,16.47-24.25,18.07-18.42,5.58-35.39-7.07-36.11-7.63-12.1-9.31-15.09-22.26-16-26.22a45.76,45.76,0,0,1,.06-19.78c3.93-16.76,16.86-25.86,20.49-28.23C260.13,423.57,282.78,423.22,296.17,432.65Z" transform="translate(-178.96 -361.17)"/><path d="M266.59,586.77c.07-.25.29-1,.57-1.85,2.82-8.91,17.37-52.6,19.09-58.21a2.14,2.14,0,0,0,0-1.39c-1-2.58-8-1.57-12.38-1.66-11.95-.23-21.07-9-22.94-10.94-9.61-9.81-9.7-23-9.69-25,.13-15.72,11-30.91,26.75-36.54,16.89-6,34.33.6,44.4,11.83A42.3,42.3,0,0,1,322.5,496.7c-1.79,12.3-9.78,22.28-10.73,23.43h0q-12.72,18.12-25.5,37Q276.21,572.06,266.59,586.77Z" transform="translate(-178.96 -361.17)"/><path class="cls-2" d="M322.3,494.06a42.71,42.71,0,0,1-4.42,14.52,43.64,43.64,0,0,1-5,7.7c-9.54,12-28.07,33.38-29,34.47,1.23-5,2.33-8.92,3.12-11.65a80.4,80.4,0,0,0,1.94-7.84c.89-4.66,1.31-7,.24-8.5-1.64-2.29-5.5-1.58-9.08-1.64-10.06-.17-18.15-6.34-21.22-9.24-10.72-10.12-8.77-26.2-8.67-26.9,1.58-11.58,9.05-18.49,11.35-20.57a34.91,34.91,0,0,1,13.17-7.48c12.63-3.76,23.6,1.37,26.55,2.88C314.63,466.66,323.47,481.58,322.3,494.06Z" transform="translate(-178.96 -361.17)"/><path d="M320.05,575.5c-.06-.37-.23-1.43-.43-2.77-2-13.37-10.79-79.38-12.12-87.75a3.07,3.07,0,0,0-.93-1.79c-3-2.68-11.42,3.05-17.14,5.7-15.68,7.28-33.12,1.62-36.75.33-18.71-6.64-27.2-23.73-28.42-26.29-9.8-20.5-5.33-47.13,11.57-64.44,18.13-18.56,45-21,65.21-12.8,18.4,7.47,30,23.25,34.54,37.29,5.47,17.12,1.41,35.16.92,37.26h0q-5.06,31.61-9.65,64.28Q323.22,550.29,320.05,575.5Z" transform="translate(-178.96 -361.17)"/><path class="cls-2" d="M333.65,419.68a62.17,62.17,0,0,1,3.46,21.67,63.4,63.4,0,0,1-1.62,13.19c-4.8,21.64-15.32,61.18-15.85,63.19-1.56-7.21-2.64-13.06-3.34-17.11a115.05,115.05,0,0,0-2.46-11.41c-1.8-6.62-2.74-10-5.06-11.2-3.6-1.93-8.16,1.42-12.85,3.62-13.18,6.17-27.62,3.28-33.44,1.46-20.35-6.35-28-28.49-28.33-29.46-5.29-16.05,0-29.77,1.71-33.93a50.39,50.39,0,0,1,12.36-18.07c14-12.91,31.54-13.2,36.32-13.1C306.29,388.94,327.25,402.72,333.65,419.68Z" transform="translate(-178.96 -361.17)"/></svg>